<mxfile host="65bd71144e">
    <diagram id="R721RSbBpMfSJYR2NfQt" name="Page-1">
        <mxGraphModel dx="1714" dy="556" grid="1" gridSize="10" guides="1" tooltips="1" connect="1" arrows="1" fold="1" page="1" pageScale="1" pageWidth="850" pageHeight="1100" math="0" shadow="0">
            <root>
                <mxCell id="0"/>
                <mxCell id="1" parent="0"/>
                <mxCell id="10" value="" style="group" parent="1" vertex="1" connectable="0">
                    <mxGeometry x="290" y="60" width="300" height="330" as="geometry"/>
                </mxCell>
                <mxCell id="2" value="" style="rounded=0;whiteSpace=wrap;html=1;" parent="10" vertex="1">
                    <mxGeometry width="300" height="330" as="geometry"/>
                </mxCell>
                <mxCell id="3" value="&lt;font style=&quot;font-size: 24px;&quot;&gt;Relative&lt;/font&gt;" style="text;html=1;strokeColor=none;fillColor=none;align=center;verticalAlign=middle;whiteSpace=wrap;rounded=0;" parent="10" vertex="1">
                    <mxGeometry x="92.22222222222223" width="116.66666666666667" height="58.92857142857143" as="geometry"/>
                </mxCell>
                <mxCell id="4" value="" style="endArrow=none;html=1;fontSize=24;entryX=1.014;entryY=0.157;entryDx=0;entryDy=0;entryPerimeter=0;" parent="10" target="2" edge="1">
                    <mxGeometry width="50" height="50" relative="1" as="geometry">
                        <mxPoint y="53.035714285714285" as="sourcePoint"/>
                        <mxPoint x="322.22222222222223" y="176.78571428571428" as="targetPoint"/>
                    </mxGeometry>
                </mxCell>
                <mxCell id="6" value="- nameR:String" style="text;html=1;strokeColor=none;fillColor=none;align=center;verticalAlign=middle;whiteSpace=wrap;rounded=0;fontSize=24;" parent="10" vertex="1">
                    <mxGeometry y="58.92857142857143" width="188.88888888888889" height="35.35714285714286" as="geometry"/>
                </mxCell>
                <mxCell id="7" value="- relation:String" style="text;html=1;strokeColor=none;fillColor=none;align=center;verticalAlign=middle;whiteSpace=wrap;rounded=0;fontSize=24;" parent="10" vertex="1">
                    <mxGeometry y="94.28571428571429" width="188.88888888888889" height="23.571428571428573" as="geometry"/>
                </mxCell>
                <mxCell id="8" value="&lt;div style=&quot;&quot;&gt;&lt;span style=&quot;background-color: initial;&quot;&gt;+ Relative()&lt;/span&gt;&lt;/div&gt;&lt;div style=&quot;&quot;&gt;&lt;span style=&quot;background-color: initial;&quot;&gt;+Relative(nameR:String, relation:String)&lt;/span&gt;&lt;/div&gt;&lt;div style=&quot;&quot;&gt;&lt;span style=&quot;background-color: initial;&quot;&gt;+getRelation():String&lt;/span&gt;&lt;/div&gt;&lt;div style=&quot;&quot;&gt;&lt;span style=&quot;background-color: initial;&quot;&gt;+getnameR():String&lt;/span&gt;&lt;/div&gt;&lt;div style=&quot;&quot;&gt;&lt;span style=&quot;background-color: initial;&quot;&gt;+getnameRelated():String&lt;/span&gt;&lt;/div&gt;" style="text;html=1;strokeColor=none;fillColor=none;align=left;verticalAlign=middle;whiteSpace=wrap;rounded=0;fontSize=24;" parent="10" vertex="1">
                    <mxGeometry y="153.21428571428572" width="300" height="176.78571428571428" as="geometry"/>
                </mxCell>
                <mxCell id="9" value="" style="endArrow=none;html=1;fontSize=24;exitX=0;exitY=0;exitDx=0;exitDy=0;entryX=1;entryY=0;entryDx=0;entryDy=0;" parent="10" source="8" target="8" edge="1">
                    <mxGeometry width="50" height="50" relative="1" as="geometry">
                        <mxPoint x="266.6666666666667" y="176.78571428571428" as="sourcePoint"/>
                        <mxPoint x="322.22222222222223" y="117.85714285714286" as="targetPoint"/>
                    </mxGeometry>
                </mxCell>
                <mxCell id="11" value="- nameRelated:String" style="text;html=1;strokeColor=none;fillColor=none;align=center;verticalAlign=middle;whiteSpace=wrap;rounded=0;fontSize=24;" vertex="1" parent="10">
                    <mxGeometry y="117.85714285714286" width="266.6666666666667" height="35.35714285714286" as="geometry"/>
                </mxCell>
            </root>
        </mxGraphModel>
    </diagram>
</mxfile>